<?xml version="1.0" encoding="UTF-8"?>
<svg version="1.1" xmlns="http://www.w3.org/2000/svg" width="1024" height="1024">
<path d="M0 0 C1.32010071 -0.00262848 1.32010071 -0.00262848 2.66687012 -0.00531006 C5.593607 -0.00973041 8.52028391 -0.00678617 11.44702148 -0.00341797 C13.48852042 -0.00409186 15.53001928 -0.0050626 17.57151794 -0.00631714 C21.866534 -0.00779509 26.16152932 -0.00563977 30.45654297 -0.00097656 C35.91635359 0.00466686 41.37611447 0.00147697 46.83592319 -0.00454903 C51.06316996 -0.00819843 55.29040536 -0.00699524 59.51765251 -0.00442123 C61.52713973 -0.00376118 63.53662802 -0.00454757 65.54611397 -0.00690079 C107.38891883 -0.04508236 107.38891883 -0.04508236 117.81420898 8.37939453 C122.62040553 13.35208749 124.5714588 19.82468699 124.81611633 26.59251404 C124.85722377 27.70584893 124.8983312 28.81918383 124.94068432 29.96625614 C124.97927217 31.17178859 125.01786001 32.37732103 125.05761719 33.61938477 C125.0996568 34.87340056 125.14169641 36.12741636 125.18500996 37.41943264 C125.59061108 50.37635595 125.66952881 63.32724822 125.67358398 76.28955078 C125.67681393 78.78559893 125.68017915 81.28164691 125.68367004 83.7776947 C125.68958854 88.95816486 125.69151733 94.13861851 125.69091797 99.3190918 C125.6908162 105.87577976 125.70451718 112.43235983 125.72169018 118.98902225 C125.73293471 124.12764449 125.73483348 129.26624153 125.73430824 134.4048748 C125.73546783 136.81918144 125.73977169 139.23348919 125.74764061 141.64778328 C125.78505071 154.29678817 125.53508057 166.86661721 124.62792969 179.48657227 C124.55192378 180.55859674 124.47591787 181.6306212 124.39760876 182.73513126 C121.11410243 224.12163401 105.29572822 266.50461749 76.50561523 297.12939453 C75.84561523 297.12939453 75.18561523 297.12939453 74.50561523 297.12939453 C74.12276367 297.99902832 74.12276367 297.99902832 73.73217773 298.88623047 C72.37976747 301.35954765 70.86829 303.02541562 68.88061523 305.02001953 C68.17420898 305.72900391 67.46780273 306.43798828 66.73999023 307.16845703 C66.00264648 307.89806641 65.26530273 308.62767578 64.50561523 309.37939453 C63.76827148 310.12447266 63.03092773 310.86955078 62.27124023 311.63720703 C61.56483398 312.34103516 60.85842773 313.04486328 60.13061523 313.77001953 C59.48350586 314.41487305 58.83639648 315.05972656 58.16967773 315.72412109 C56.50561523 317.12939453 56.50561523 317.12939453 54.50561523 317.12939453 C54.17561523 318.11939453 53.84561523 319.10939453 53.50561523 320.12939453 C51.87347767 321.60950522 50.17471334 323.01698171 48.44311523 324.37939453 C45.1144182 327.01247325 41.86995076 329.67671929 38.70092773 332.50048828 C34.45876745 336.23431337 30.00578545 339.61156421 25.44311523 342.94189453 C24.61384521 343.54864014 23.7845752 344.15538574 22.93017578 344.78051758 C-3.13211527 363.73832471 -24.91604165 376.81940506 -58.30688477 372.25439453 C-61.32641602 371.76220703 -61.32641602 371.76220703 -63.49438477 371.12939453 C-63.82438477 370.46939453 -64.15438477 369.80939453 -64.49438477 369.12939453 C-66.82410164 368.77165882 -69.15838508 368.44349807 -71.49438477 368.12939453 C-74.12835968 367.38273428 -76.66857194 366.59920308 -79.24438477 365.69189453 C-80.32345093 365.31460205 -80.32345093 365.31460205 -81.42431641 364.9296875 C-89.97054178 361.79414732 -97.87365597 357.40399478 -105.79296875 352.95214844 C-107.47948909 351.98428072 -107.47948909 351.98428072 -109.49438477 352.12939453 C-110.82922384 350.79756864 -112.16219839 349.46387383 -113.49438477 348.12939453 C-115.00747815 347.05063369 -116.52266104 345.97418222 -118.06225586 344.93359375 C-127.03853201 338.86650534 -134.77023361 331.69342733 -142.49438477 324.12939453 C-143.47435425 323.19317261 -143.47435425 323.19317261 -144.47412109 322.23803711 C-149.33084284 317.52486379 -153.4657625 312.54440499 -157.43188477 307.06689453 C-158.03524658 306.23907471 -158.6386084 305.41125488 -159.26025391 304.55834961 C-167.57631276 293.01005739 -174.32363789 280.93241229 -180.49438477 268.12939453 C-181.04352539 267.08525391 -181.04352539 267.08525391 -181.60375977 266.02001953 C-183.02585876 263.00117781 -183.73484783 259.8426095 -184.57641602 256.62158203 C-185.25668227 254.03367553 -185.96295576 251.46078072 -186.69360352 248.88720703 C-195.03769491 219.14241759 -197.45353003 185.46931542 -190.49438477 155.12939453 C-190.33873047 154.39092285 -190.18307617 153.65245117 -190.02270508 152.89160156 C-183.23164195 121.111866 -167.60780245 91.973527 -145.48657227 68.27783203 C-143.67568657 66.32491608 -141.99533269 64.31245294 -140.30688477 62.25439453 C-135.01212355 56.20670856 -128.71775088 51.18252809 -122.49438477 46.12939453 C-121.57157715 45.37819336 -121.57157715 45.37819336 -120.63012695 44.61181641 C-90.03210065 19.99861643 -52.68405774 5.40407072 -13.74047852 1.52392578 C-1.17855265 -0.00285462 -1.17855265 -0.00285462 0 0 Z M12.63061523 91.62939453 C10.06477662 92.03992871 8.04703251 92.12640035 5.48608398 92.04345703 C0.07560454 92.01493463 -5.01648808 92.94556425 -10.30688477 94.00439453 C-11.23436523 94.17841797 -12.1618457 94.35244141 -13.11743164 94.53173828 C-17.27794795 95.34164412 -20.71295019 96.19792691 -24.49438477 98.12939453 C-25.40317383 98.27376953 -26.31196289 98.41814453 -27.24829102 98.56689453 C-42.90213521 101.27947403 -59.06257845 111.25174693 -70.37329102 122.09814453 C-72.16362649 123.81264628 -73.97410846 125.30595188 -75.93188477 126.81689453 C-94.96870557 143.0117255 -104.07961046 167.70419842 -106.36938477 191.87939453 C-107.88898271 216.84991911 -97.82902809 240.93137208 -82.49438477 260.12939453 C-81.95297852 260.90025391 -81.41157227 261.67111328 -80.85375977 262.46533203 C-80.18086914 263.28904297 -80.18086914 263.28904297 -79.49438477 264.12939453 C-78.83438477 264.12939453 -78.17438477 264.12939453 -77.49438477 264.12939453 C-77.16438477 265.11939453 -76.83438477 266.10939453 -76.49438477 267.12939453 C-68.01581452 276.09577293 -55.60330641 286.83879975 -42.80688477 287.69189453 C-39.09196508 287.47942945 -36.69600861 286.53728352 -33.94750977 283.87939453 C-31.51165737 280.94589487 -29.45721072 277.75378942 -27.32250977 274.59814453 C-25.12868996 271.63555026 -22.72511076 269.45514653 -19.88500977 267.12939453 C-16.08104505 263.94699268 -12.50196131 260.52133239 -8.88647461 257.12792969 C-4.70709476 253.23574953 -4.70709476 253.23574953 -2.49438477 252.12939453 C-2.49438477 251.46939453 -2.49438477 250.80939453 -2.49438477 250.12939453 C-1.95040039 249.91669922 -1.40641602 249.70400391 -0.84594727 249.48486328 C15.28222787 240.18839024 26.80471824 217.09618097 31.78686523 199.87939453 C34.6782001 189.11418068 35.6602768 178.89719473 35.63842773 167.78955078 C35.63974701 166.71714142 35.64106628 165.64473206 35.64242554 164.53982544 C35.64432727 161.09048484 35.63804275 157.64122674 35.63061523 154.19189453 C35.629729 153.0227652 35.62884277 151.85363586 35.62792969 150.64907837 C35.61379372 134.84765251 35.49654679 119.07798659 34.58764648 103.29882812 C34.5091545 101.22299547 34.57271981 99.19189872 34.66186523 97.11767578 C34.61030273 96.13154297 34.55874023 95.14541016 34.50561523 94.12939453 C28.53569783 90.14944959 19.53287326 90.42900183 12.63061523 91.62939453 Z " fill="#5191FE" transform="translate(497.494384765625,263.87060546875)"/>
<path d="M0 0 C7.19634659 6.40460708 9.39365155 15.41814671 9.98828125 24.76953125 C11.40211562 95.34201058 -12.54697063 169.49257956 -61.1640625 221.7109375 C-63.15737506 223.83314618 -63.15737506 223.83314618 -65.01171875 226.76953125 C-65.67171875 226.76953125 -66.33171875 226.76953125 -67.01171875 226.76953125 C-67.21796875 227.300625 -67.42421875 227.83171875 -67.63671875 228.37890625 C-69.59133067 231.77726561 -72.23295592 234.28009053 -75.01171875 237.01953125 C-75.55828125 237.57382812 -76.10484375 238.128125 -76.66796875 238.69921875 C-80.75833205 242.76953125 -80.75833205 242.76953125 -83.01171875 242.76953125 C-83.34171875 243.75953125 -83.67171875 244.74953125 -84.01171875 245.76953125 C-87.4521245 249.02995602 -91.27051622 251.86294469 -95.01171875 254.76953125 C-95.9251001 255.48520264 -95.9251001 255.48520264 -96.85693359 256.21533203 C-123.4388888 276.9594158 -158.95320599 297.86600075 -193.87890625 295.58203125 C-201.40890079 294.48343022 -206.30928092 290.68531944 -211.38671875 285.20703125 C-215.84408619 278.52098009 -216.7647835 270.6142478 -215.54296875 262.75390625 C-214.20327845 257.42426877 -212.55609439 252.99991508 -209.01171875 248.76953125 C-208.35171875 248.76953125 -207.69171875 248.76953125 -207.01171875 248.76953125 C-207.01171875 248.10953125 -207.01171875 247.44953125 -207.01171875 246.76953125 C-200.28330851 241.09378257 -192.2854734 236.98104947 -184.63671875 232.70703125 C-167.95170206 223.21879867 -152.28103306 212.6350095 -138.01171875 199.76953125 C-137.45371582 199.27179199 -136.89571289 198.77405273 -136.32080078 198.26123047 C-129.81310766 192.44278027 -123.49680083 186.58396728 -118.01171875 179.76953125 C-117.19445312 178.77824219 -116.3771875 177.78695312 -115.53515625 176.765625 C-82.93206456 136.69804904 -65.69798651 88.20447124 -62.17504883 36.96972656 C-61.23222659 24.5657461 -59.22394355 12.76371522 -50.01171875 3.76953125 C-36.51360781 -7.45833068 -14.88680077 -10.28315146 0 0 Z " fill="#09D2FE" transform="translate(737.01171875,398.23046875)"/>
<path d="M0 0 C2.125 0.9375 2.125 0.9375 4 2 C4 2.33 4 2.66 4 3 C-3.02639415 3.74805717 -9.93391809 4.13794954 -17 4 C-17.33 4.99 -17.66 5.98 -18 7 C-19.0621875 7.09796875 -20.124375 7.1959375 -21.21875 7.296875 C-29.01629958 8.09423644 -35.13652632 8.98551539 -42 13 C-44.5625 13.625 -44.5625 13.625 -47 14 C-52.89752345 15.50329029 -58.3873718 17.68750083 -64 20 C-64.95261719 20.37125 -65.90523438 20.7425 -66.88671875 21.125 C-74.37114673 24.09920406 -81.12094825 27.83269039 -88 32 C-89.30977521 32.73404984 -90.62178884 33.46414365 -91.9375 34.1875 C-95.49722892 36.29427834 -98.53741648 38.69286014 -101.6171875 41.4453125 C-105.00017266 44.43737493 -108.24922364 46.80094081 -112.23046875 48.921875 C-114.93988466 50.57264496 -117.19596708 52.68002449 -119.51953125 54.828125 C-121 56 -121 56 -123 56 C-123.226875 56.556875 -123.45375 57.11375 -123.6875 57.6875 C-125.3703574 60.65253447 -127.53621374 62.65353689 -130 65 C-132.24426192 67.17625398 -134.20917627 69.27069871 -136.125 71.75 C-136.74375 72.4925 -137.3625 73.235 -138 74 C-138.66 74 -139.32 74 -140 74 C-140.22945313 74.86753906 -140.45890625 75.73507812 -140.6953125 76.62890625 C-142.19378341 80.50070385 -144.12906798 82.83712275 -146.875 85.9375 C-150.48812258 90.11038408 -153.45564204 94.09975505 -156 99 C-156.8676565 100.35888357 -157.74303247 101.71286092 -158.625 103.0625 C-160.2477008 105.60539089 -161.1686884 107.51543677 -162.125 110.4375 C-162.558125 111.7059375 -162.558125 111.7059375 -163 113 C-164.485 113.495 -164.485 113.495 -166 114 C-165.938125 114.721875 -165.87625 115.44375 -165.8125 116.1875 C-166.03933306 119.58999583 -167.21759733 121.12073415 -169 124 C-169.48746822 125.62489405 -169.97029941 127.25199258 -170.39453125 128.89453125 C-171.44636593 132.55220154 -172.85051876 136.08622664 -174.1953125 139.64453125 C-175.10776032 141.90057978 -175.10776032 141.90057978 -175 144 C-175.66 144 -176.32 144 -177 144 C-176.96519531 144.68964844 -176.93039062 145.37929688 -176.89453125 146.08984375 C-176.72818698 151.86436619 -177.17782182 156.42495974 -179.19921875 161.828125 C-181.91193068 169.18552906 -182.26198115 176.21333795 -182 184 C-182.66 184 -183.32 184 -184 184 C-183.86181468 187.47951523 -183.71317399 190.95850495 -183.5625 194.4375 C-183.52318359 195.43072266 -183.48386719 196.42394531 -183.44335938 197.44726562 C-183.40146484 198.39150391 -183.35957031 199.33574219 -183.31640625 200.30859375 C-183.26141968 201.62041626 -183.26141968 201.62041626 -183.20532227 202.95874023 C-183.21818934 204.9927402 -183.21818934 204.9927402 -182 206 C-181.61976281 208.52204196 -181.29073831 211.02989672 -181 213.5625 C-180.87625 214.59987305 -180.87625 214.59987305 -180.75 215.65820312 C-180.41787081 218.44237989 -180.08593504 221.22639696 -179.77636719 224.01318359 C-177.86306828 240.54490029 -173.36559686 257.43540627 -166.20703125 272.45703125 C-164.93746738 275.13174348 -163.76011348 277.82808574 -162.625 280.5625 C-162.28726562 281.36816406 -161.94953125 282.17382812 -161.6015625 283.00390625 C-161 285 -161 285 -162 287 C-163.29231226 284.58367661 -164.58387191 282.16695604 -165.875 279.75 C-166.23980469 279.06808594 -166.60460937 278.38617187 -166.98046875 277.68359375 C-168.6940335 274.47455431 -170.39606303 271.26567346 -172 268 C-172.34417969 267.35160156 -172.68835938 266.70320313 -173.04296875 266.03515625 C-174.48928694 262.95951634 -175.22469082 259.77358185 -176.08203125 256.4921875 C-176.7622975 253.904281 -177.468571 251.33138619 -178.19921875 248.7578125 C-186.54331015 219.01302305 -188.95914527 185.33992089 -182 155 C-181.8443457 154.26152832 -181.68869141 153.52305664 -181.52832031 152.76220703 C-174.73725718 120.98247147 -159.11341769 91.84413247 -136.9921875 68.1484375 C-135.1813018 66.19552155 -133.50094792 64.18305841 -131.8125 62.125 C-126.51773879 56.07731403 -120.22336612 51.05313356 -114 46 C-113.07719238 45.24879883 -113.07719238 45.24879883 -112.13574219 44.48242188 C-81.53771588 19.8692219 -44.18967298 5.27467619 -5.24609375 1.39453125 C-2.11750456 1.19876553 -2.11750456 1.19876553 0 0 Z " fill="#8C6CF8" transform="translate(489,264)"/>
<path d="M0 0 C9.39301511 1.01830818 16.36106166 3.52130666 22.4375 11 C24.97916866 15.88000382 26.23593913 20.25928913 26.40815735 25.75608826 C26.44604213 26.85975518 26.48392691 27.96342211 26.52295971 29.10053349 C26.55316865 30.28092921 26.58337759 31.46132494 26.61450195 32.67749023 C26.65202985 33.91797088 26.68955774 35.15845152 26.72822285 36.43652248 C27.09081012 49.34359737 27.16392951 62.24877359 27.16796875 75.16015625 C27.1711987 77.6562044 27.17456392 80.15225237 27.17805481 82.64830017 C27.1839733 87.82877033 27.1859021 93.00922398 27.18530273 98.18969727 C27.18520097 104.74638523 27.19890195 111.3029653 27.21607494 117.85962772 C27.22731947 122.99824996 27.22921825 128.136847 27.22869301 133.27548027 C27.22985259 135.68978691 27.23415645 138.10409466 27.24202538 140.51838875 C27.27943547 153.16739364 27.02946534 165.73722268 26.12231445 178.35717773 C26.04630855 179.4292022 25.97030264 180.50122667 25.89199352 181.60573673 C23.56035171 210.99459438 15.45842713 242.18767424 -1 267 C-1.66 266.34 -2.32 265.68 -3 265 C-2.49210938 264.00742187 -1.98421875 263.01484375 -1.4609375 261.9921875 C4.00287734 251.23771626 9.18774803 240.46879165 13 229 C13.495 227.96875 13.99 226.9375 14.5 225.875 C16.32246921 221.73552219 16.86083034 217.46274207 17.53125 213.015625 C19.12781955 202.7443609 19.12781955 202.7443609 21 199 C21.0396713 197.33380554 21.04384447 195.66608987 21 194 C21.66 194 22.32 194 23 194 C22.91621094 193.39671875 22.83242188 192.7934375 22.74609375 192.171875 C22.64425781 191.37265625 22.54242187 190.5734375 22.4375 189.75 C22.33308594 188.96109375 22.22867188 188.1721875 22.12109375 187.359375 C22 185 22 185 22.45680237 183.24472046 C24.76113607 173.72224706 24.11181094 163.23836834 23.9204998 153.51515579 C23.87717647 151.31040818 23.84161839 149.10563674 23.80763245 146.90072632 C23.7576937 143.71350348 23.70461924 140.52635767 23.64874268 137.3392334 C23.50047937 128.86439088 23.36896586 120.38930895 23.24609375 111.9140625 C23.23344986 111.05004822 23.22080597 110.18603394 23.20777893 109.2958374 C23.02614578 96.57870739 22.97662227 83.8666329 23.03515625 71.1484375 C23.04140732 69.56721004 23.04761806 67.98598242 23.05378723 66.40475464 C23.08225254 59.65648517 23.1206096 52.90866368 23.1925993 46.16070747 C23.2126965 44.0743078 23.22614524 41.98798738 23.23680115 39.90151978 C23.25033386 37.37861685 23.27528756 34.85573622 23.31434631 32.33309937 C23.33440931 25.77093469 22.70716959 20.98572772 20 15 C19.62033354 13.34327363 19.26239024 11.67929755 19 10 C18.01 9.67 17.02 9.34 16 9 C16 8.34 16 7.68 16 7 C14.68 7 13.36 7 12 7 C11.67 6.34 11.34 5.68 11 5 C8.19019327 4.30772968 8.19019327 4.30772968 4.9375 3.875 C3.28041016 3.62363281 3.28041016 3.62363281 1.58984375 3.3671875 C0.73519531 3.24601562 -0.11945312 3.12484375 -1 3 C-0.67 2.01 -0.34 1.02 0 0 Z " fill="#29B4FB" transform="translate(596,265)"/>
<path d="M0 0 C0.33 0 0.66 0 1 0 C1.0154612 1.04783409 1.0154612 1.04783409 1.03123474 2.11683655 C1.129493 8.72228051 1.23204577 15.32764249 1.33933926 21.93294621 C1.39434144 25.32823211 1.44772308 28.7235269 1.49731445 32.11889648 C1.55449028 36.02856691 1.61887078 39.9381032 1.68359375 43.84765625 C1.70030624 45.05833267 1.71701874 46.26900909 1.73423767 47.51637268 C1.83215264 53.11606585 2.1022907 58.47573815 3 64 C3.19920851 67.83283868 3.18504315 71.66240156 3.1875 75.5 C3.19974609 76.50675781 3.21199219 77.51351562 3.22460938 78.55078125 C3.23562496 84.15404177 2.69369518 88.67797038 1 94 C1.73121406 96.3892395 1.73121406 96.3892395 3 98 C1.515 98.495 1.515 98.495 0 99 C-0.07347656 99.93972656 -0.07347656 99.93972656 -0.1484375 100.8984375 C-0.22320313 101.71570313 -0.29796875 102.53296875 -0.375 103.375 C-0.44460938 104.18710937 -0.51421875 104.99921875 -0.5859375 105.8359375 C-1 108 -1 108 -3 110 C-3.67651207 112.19704511 -3.67651207 112.19704511 -4.125 114.625 C-4.29257812 115.44226563 -4.46015625 116.25953125 -4.6328125 117.1015625 C-4.81457031 118.04128906 -4.81457031 118.04128906 -5 119 C-5.66 119 -6.32 119 -7 119 C-7 120.32 -7 121.64 -7 123 C-6.34 123.33 -5.68 123.66 -5 124 C-8.75 127 -8.75 127 -11 127 C-11.103125 127.721875 -11.20625 128.44375 -11.3125 129.1875 C-12.06793947 132.27793421 -13.15531315 134.41743841 -15 137 C-15.66 137 -16.32 137 -17 137 C-17.2475 138.2065625 -17.2475 138.2065625 -17.5 139.4375 C-20.61287248 146.83057214 -26.96961431 152.2336153 -33.04296875 157.296875 C-36.08108275 159.94082252 -38.85757094 162.83409295 -41.67504883 165.70947266 C-43.5507189 167.6222672 -45.43153732 169.52991096 -47.3125 171.4375 C-47.93833984 172.08009766 -48.56417969 172.72269531 -49.20898438 173.38476562 C-53.03300115 177.24800308 -56.9374376 180.5930346 -61.40429688 183.69702148 C-63.57134151 185.46653146 -64.10847449 187.39400237 -65 190 C-67.625 192.3125 -67.625 192.3125 -70 194 C-70.66 193.67 -71.32 193.34 -72 193 C-69.01646545 189.31963085 -66.01200759 185.65709134 -63 182 C-62.12408203 180.91332031 -62.12408203 180.91332031 -61.23046875 179.8046875 C-57.18617953 174.94366834 -52.62149087 171.07300215 -47.6484375 167.17578125 C-44.90051088 164.99821857 -44.90051088 164.99821857 -42.2890625 162.23046875 C-40 160 -40 160 -38 160 C-38 159.34 -38 158.68 -38 158 C-36.6015625 156.6953125 -36.6015625 156.6953125 -34.625 155.125 C-14.83885008 138.16544292 -3.09454392 112.74126704 -1 87 C-0.88562935 83.40873117 -0.90613022 79.82310464 -0.9375 76.23046875 C-0.94606309 74.11889689 -0.95452252 72.0073246 -0.96289062 69.89575195 C-0.96909424 68.79961578 -0.97529785 67.70347961 -0.98168945 66.5741272 C-1.10178253 44.36231279 -0.81653743 22.19635403 0 0 Z " fill="#3695F8" transform="translate(533,356)"/>
<path d="M0 0 C0.33 0 0.66 0 1 0 C1 6.93 1 13.86 1 21 C0.34 21 -0.32 21 -1 21 C-0.86181468 24.47951523 -0.71317399 27.95850495 -0.5625 31.4375 C-0.52318359 32.43072266 -0.48386719 33.42394531 -0.44335938 34.44726562 C-0.40146484 35.39150391 -0.35957031 36.33574219 -0.31640625 37.30859375 C-0.27974854 38.18314209 -0.24309082 39.05769043 -0.20532227 39.95874023 C-0.21818934 41.9927402 -0.21818934 41.9927402 1 43 C1.38023719 45.52204196 1.70926169 48.02989672 2 50.5625 C2.0825 51.25408203 2.165 51.94566406 2.25 52.65820312 C2.58212919 55.44237989 2.91406496 58.22639696 3.22363281 61.01318359 C5.13693172 77.54490029 9.63440314 94.43540627 16.79296875 109.45703125 C18.06253262 112.13174348 19.23988652 114.82808574 20.375 117.5625 C20.71273438 118.36816406 21.05046875 119.17382812 21.3984375 120.00390625 C22 122 22 122 21 124 C19.70768774 121.58367661 18.41612809 119.16695604 17.125 116.75 C16.76019531 116.06808594 16.39539063 115.38617187 16.01953125 114.68359375 C14.3059665 111.47455431 12.60393697 108.26567346 11 105 C10.65582031 104.35160156 10.31164062 103.70320312 9.95703125 103.03515625 C8.51071306 99.95951634 7.77530918 96.77358185 6.91796875 93.4921875 C6.2377025 90.904281 5.531429 88.33138619 4.80078125 85.7578125 C-0.35618117 67.37441352 -2.27244208 50.06402945 -2.3125 31 C-2.31617584 30.15215942 -2.31985168 29.30431885 -2.32363892 28.43078613 C-2.3454936 18.76657545 -2.0685164 9.49125784 0 0 Z " fill="#706EF4" transform="translate(306,427)"/>
<path d="M0 0 C0.99 0.495 0.99 0.495 2 1 C-25.90605303 23.63901653 -51.83314334 43.47307744 -89.26953125 39.609375 C-95.32052673 38.78211652 -95.32052673 38.78211652 -98 38 C-98.33 37.34 -98.66 36.68 -99 36 C-100.63701042 35.75976341 -102.2755652 35.52733085 -103.91894531 35.33544922 C-107.71635789 34.72333696 -111.2658859 33.35991429 -114.875 32.0625 C-115.64585937 31.79759766 -116.41671875 31.53269531 -117.2109375 31.25976562 C-122.87474502 29.25050997 -122.87474502 29.25050997 -124 27 C-119.1383923 27.51719231 -114.89802017 28.61886406 -110.2890625 30.234375 C-106.90356179 31.36672677 -103.47295303 32.17912019 -100 33 C-100 33.66 -100 34.32 -100 35 C-97.36 35 -94.72 35 -92 35 C-92 35.66 -92 36.32 -92 37 C-91.30132812 36.98839844 -90.60265625 36.97679687 -89.8828125 36.96484375 C-88.97273438 36.95582031 -88.06265625 36.94679688 -87.125 36.9375 C-86.22007812 36.92589844 -85.31515625 36.91429687 -84.3828125 36.90234375 C-82 37 -82 37 -80 38 C-72.08791943 38.51428524 -64.67151843 38.48597248 -57.1484375 35.75390625 C-54.78945148 34.92611661 -52.45738528 34.44405383 -50 34 C-50 33.34 -50 32.68 -50 32 C-49.05125 31.814375 -48.1025 31.62875 -47.125 31.4375 C-42.5356906 30.16217467 -39.15877213 27.40154792 -35.37109375 24.60546875 C-32.70144558 22.79784865 -30.04775708 21.99052105 -27 21 C-26.71769531 20.39929688 -26.43539062 19.79859375 -26.14453125 19.1796875 C-24.64806494 16.32976189 -22.82389307 15.13465473 -20.1875 13.3125 C-19.33542969 12.71050781 -18.48335937 12.10851562 -17.60546875 11.48828125 C-14.98843698 9.99339504 -12.92958523 9.53912506 -10 9 C-8.75825204 7.0998823 -8.75825204 7.0998823 -8 5 C-7.34 4.34 -6.68 3.68 -6 3 C-5.01 3.495 -5.01 3.495 -4 4 C-3.67 3.01 -3.34 2.02 -3 1 C-2.01 0.67 -1.02 0.34 0 0 Z " fill="#21A5F9" transform="translate(532,597)"/>
<path d="M0 0 C0.66 0.33 1.32 0.66 2 1 C0.31556126 37.34758453 -5.45336422 75.02439 -26 106 C-26.66 105.34 -27.32 104.68 -28 104 C-27.49210938 103.00742187 -26.98421875 102.01484375 -26.4609375 100.9921875 C-20.99712266 90.23771626 -15.81225197 79.46879165 -12 68 C-11.505 66.96875 -11.01 65.9375 -10.5 64.875 C-8.67753079 60.73552219 -8.13916966 56.46274207 -7.46875 52.015625 C-5.87218045 41.7443609 -5.87218045 41.7443609 -4 38 C-3.9603287 36.33380554 -3.95615553 34.66608987 -4 33 C-3.34 33 -2.68 33 -2 33 C-2.08378906 32.39671875 -2.16757812 31.7934375 -2.25390625 31.171875 C-2.35574219 30.37265625 -2.45757813 29.5734375 -2.5625 28.75 C-2.66691406 27.96109375 -2.77132812 27.1721875 -2.87890625 26.359375 C-3.00330101 23.93568347 -2.61079699 22.33213397 -2 20 C-1.80142551 17.71087745 -1.63810714 15.41856498 -1.5 13.125 C-1.23125812 8.68116102 -0.80372033 4.38027579 0 0 Z " fill="#1AB4FA" transform="translate(621,426)"/>
<path d="M0 0 C0.33 0 0.66 0 1 0 C1 1.98 1 3.96 1 6 C0.34 6 -0.32 6 -1 6 C-1 6.66 -1 7.32 -1 8 C-1.66 8 -2.32 8 -3 8 C-2.8904307 11.45900478 -2.75973152 14.91689109 -2.625 18.375 C-2.5940625 19.35984375 -2.563125 20.3446875 -2.53125 21.359375 C-2.49257813 22.30039062 -2.45390625 23.24140625 -2.4140625 24.2109375 C-2.3826416 25.08024902 -2.3512207 25.94956055 -2.31884766 26.84521484 C-2.18770567 29.20961794 -2.18770567 29.20961794 0 31 C2 33 2 33 2.75 34.875 C4.57301848 37.97413142 6.90598387 39.24065749 10 41 C19.35226467 43.36862912 30.56739764 42.40824768 40 41 C40.495 40.01 40.495 40.01 41 39 C42.56052857 38.79192952 44.12231895 38.59143628 45.6875 38.421875 C49.74443131 37.68175915 53.55899319 36.14917437 57.42578125 34.7421875 C60 34 60 34 62 35 C47.41943789 42.42783353 27.44593553 47.85638263 11.21484375 43.859375 C4.61236233 41.29756563 -1.10394979 36.15157463 -4.05078125 29.69921875 C-7.05206305 21.16470961 -6.43883246 12.29686561 -3 4 C-1.453125 1.6875 -1.453125 1.6875 0 0 Z " fill="#12B4F6" transform="translate(527,649)"/>
<path d="M0 0 C0.495 1.485 0.495 1.485 1 3 C0.38253906 3.4846875 -0.23492187 3.969375 -0.87109375 4.46875 C-3.59701379 6.6262514 -6.30098629 8.80894673 -9 11 C-9.7528125 11.60070312 -10.505625 12.20140625 -11.28125 12.8203125 C-22.98667079 22.61724077 -32.56951551 36.06417501 -38.04296875 50.28515625 C-39 52 -39 52 -42 53 C-38.89150823 43.03869684 -35.55882341 35.17265073 -28.70703125 27.1640625 C-26.81885746 25.02200402 -26.81885746 25.02200402 -26 22 C-24.328125 20.3515625 -24.328125 20.3515625 -22.25 18.625 C-19.75883654 16.52224374 -17.37231472 14.424199 -15.125 12.0625 C-13 10 -13 10 -11 10 C-10.76539063 9.40703125 -10.53078125 8.8140625 -10.2890625 8.203125 C-8.70104575 5.48906 -7.02397116 4.41506759 -4.375 2.75 C-3.55773437 2.22921875 -2.74046875 1.7084375 -1.8984375 1.171875 C-1.27195312 0.78515625 -0.64546875 0.3984375 0 0 Z " fill="#6F74F8" transform="translate(437,375)"/>
<path d="M0 0 C0.66 0 1.32 0 2 0 C2.23074219 0.969375 2.46148437 1.93875 2.69921875 2.9375 C5.80161724 15.77551273 9.09125623 28.4924853 14.79296875 40.45703125 C16.06253262 43.13174348 17.23988652 45.82808574 18.375 48.5625 C18.71273438 49.36816406 19.05046875 50.17382812 19.3984375 51.00390625 C20 53 20 53 19 55 C17.70768774 52.58367661 16.41612809 50.16695604 15.125 47.75 C14.57779297 46.72712891 14.57779297 46.72712891 14.01953125 45.68359375 C12.3059665 42.47455431 10.60393697 39.26567346 9 36 C8.65710938 35.35804688 8.31421875 34.71609375 7.9609375 34.0546875 C6.89312866 31.77148648 6.25547187 29.56529699 5.625 27.125 C4.77368222 23.86816377 3.8905505 20.63727568 2.91796875 17.4140625 C2.55316406 16.20492187 2.18835938 14.99578125 1.8125 13.75 C1.46832031 12.63109375 1.12414062 11.5121875 0.76953125 10.359375 C-0.04552605 6.80125683 -0.13387814 3.63779212 0 0 Z " fill="#6B75F7" transform="translate(308,496)"/>
<path d="M0 0 C2.125 0.9375 2.125 0.9375 4 2 C4 2.33 4 2.66 4 3 C-3.02639415 3.74805717 -9.93391809 4.13794954 -17 4 C-17.33 4.99 -17.66 5.98 -18 7 C-19.0621875 7.09796875 -20.124375 7.1959375 -21.21875 7.296875 C-29.01629958 8.09423644 -35.13652632 8.98551539 -42 13 C-44.8125 13.6875 -44.8125 13.6875 -47 14 C-47.99 14.33 -48.98 14.66 -50 15 C-52.1875 14.5625 -52.1875 14.5625 -54 14 C-53.071875 13.54625 -52.14375 13.0925 -51.1875 12.625 C-47.96078611 11.0578367 -47.96078611 11.0578367 -45 9 C-42.1392459 7.99179623 -39.19125578 7.29852057 -36.25 6.5625 C-34.94796631 6.23427246 -34.94796631 6.23427246 -33.61962891 5.89941406 C-23.86592836 3.55658799 -13.98294532 2.37865755 -4.02099609 1.30957031 C-1.93640488 1.09596553 -1.93640488 1.09596553 0 0 Z " fill="#767CF8" transform="translate(489,264)"/>
<path d="M0 0 C0.99 0 1.98 0 3 0 C1.57937485 3.2268998 -0.14245441 5.39942512 -2.625 7.890625 C-3.68460938 8.95410156 -3.68460938 8.95410156 -4.765625 10.0390625 C-5.50296875 10.76867187 -6.2403125 11.49828125 -7 12.25 C-8.10601563 13.36761719 -8.10601563 13.36761719 -9.234375 14.5078125 C-9.94078125 15.21164062 -10.6471875 15.91546875 -11.375 16.640625 C-12.02210938 17.28547852 -12.66921875 17.93033203 -13.3359375 18.59472656 C-15 20 -15 20 -17 20 C-17.33 20.99 -17.66 21.98 -18 23 C-19.71714229 24.54117068 -21.49795173 26.01229851 -23.3125 27.4375 C-26.74241941 30.14388501 -29.97418261 32.84481275 -33 36 C-33.66 35.67 -34.32 35.34 -35 35 C-33.625 33 -33.625 33 -32 31 C-31.34 31 -30.68 31 -30 31 C-29.773125 30.4225 -29.54625 29.845 -29.3125 29.25 C-27.65151778 26.40260191 -25.68475439 24.87932807 -23 23 C-22.34 23 -21.68 23 -21 23 C-20.773125 22.43796875 -20.54625 21.8759375 -20.3125 21.296875 C-18.63070365 18.35373139 -16.5289089 16.49955268 -14 14.25 C-13.113125 13.45078125 -12.22625 12.6515625 -11.3125 11.828125 C-9 10 -9 10 -7 10 C-7 9.34 -7 8.68 -7 8 C-6.0246803 6.97591432 -5.01801357 5.98165594 -4 5 C-3.01 3.6696875 -3.01 3.6696875 -2 2.3125 C-1.34 1.549375 -0.68 0.78625 0 0 Z " fill="#1AAAF7" transform="translate(569,561)"/>
<path d="M0 0 C0.66837891 0.06638672 1.33675781 0.13277344 2.02539062 0.20117188 C7.22425237 0.84281953 10.60823888 2.54830337 14.9375 5.3125 C14.2775 5.6425 13.6175 5.9725 12.9375 6.3125 C10.9286515 5.33039629 8.92962671 4.32809401 6.9375 3.3125 C2.74366853 2.19414494 -1.29894258 2.17890803 -5.625 2.1875 C-7.57599609 2.18363281 -7.57599609 2.18363281 -9.56640625 2.1796875 C-12.35640438 2.28567626 -14.43580702 2.51161067 -17.0625 3.3125 C-18.64476891 3.67139212 -20.22812863 4.02550632 -21.8125 4.375 C-23.01132812 4.63990234 -23.01132812 4.63990234 -24.234375 4.91015625 C-24.83765625 5.04292969 -25.4409375 5.17570312 -26.0625 5.3125 C-26.0625 5.9725 -26.0625 6.6325 -26.0625 7.3125 C-27.031875 7.56 -28.00125 7.8075 -29 8.0625 C-30.010625 8.475 -31.02125 8.8875 -32.0625 9.3125 C-32.76444993 11.11502869 -32.76444993 11.11502869 -33.0625 13.3125 C-34.9375 16.5625 -34.9375 16.5625 -37.0625 19.3125 C-38.0525 19.3125 -39.0425 19.3125 -40.0625 19.3125 C-40.3925 19.9725 -40.7225 20.6325 -41.0625 21.3125 C-39.75839609 14.64378681 -35.18515171 9.81698045 -29.75 6 C-20.50611367 0.29236549 -10.68142981 -1.37791481 0 0 Z " fill="#1CC5F7" transform="translate(721.0625,392.6875)"/>
<path d="M0 0 C4.8616077 0.51719231 9.10197983 1.61886406 13.7109375 3.234375 C17.09643821 4.36672677 20.52704697 5.17912019 24 6 C24 6.66 24 7.32 24 8 C26.64 8 29.28 8 32 8 C32 8.66 32 9.32 32 10 C32.69867188 9.98839844 33.39734375 9.97679687 34.1171875 9.96484375 C35.48230469 9.95130859 35.48230469 9.95130859 36.875 9.9375 C38.23238281 9.92009766 38.23238281 9.92009766 39.6171875 9.90234375 C42 10 42 10 44 11 C46.37123246 11.23029956 48.74741943 11.41119942 51.125 11.5625 C52.40632813 11.64628906 53.68765625 11.73007812 55.0078125 11.81640625 C55.99523437 11.87699219 56.98265625 11.93757812 58 12 C58 12.33 58 12.66 58 13 C34.77137104 13.44151565 34.77137104 13.44151565 26 11 C25.67 10.34 25.34 9.68 25 9 C23.36298958 8.75976341 21.7244348 8.52733085 20.08105469 8.33544922 C16.28364211 7.72333696 12.7341141 6.35991429 9.125 5.0625 C8.35414063 4.79759766 7.58328125 4.53269531 6.7890625 4.25976562 C1.12525498 2.25050997 1.12525498 2.25050997 0 0 Z " fill="#3295F7" transform="translate(408,624)"/>
<path d="M0 0 C9.39301511 1.01830818 16.36106166 3.52130666 22.4375 11 C25.99320917 17.82696161 26.24283818 23.41805245 26 31 C25.67 31 25.34 31 25 31 C24.87625 29.5459375 24.87625 29.5459375 24.75 28.0625 C24.19502183 24.03890824 22.64349351 20.73892645 20.921875 17.08984375 C19.89300736 14.75745311 19.32610956 12.52734908 19 10 C18.01 9.67 17.02 9.34 16 9 C16 8.34 16 7.68 16 7 C14.68 7 13.36 7 12 7 C11.67 6.34 11.34 5.68 11 5 C8.19019327 4.30772968 8.19019327 4.30772968 4.9375 3.875 C3.28041016 3.62363281 3.28041016 3.62363281 1.58984375 3.3671875 C0.73519531 3.24601562 -0.11945312 3.12484375 -1 3 C-0.67 2.01 -0.34 1.02 0 0 Z " fill="#37ADF8" transform="translate(596,265)"/>
<path d="M0 0 C-2.31 0.66 -4.62 1.32 -7 2 C-7 2.66 -7 3.32 -7 4 C-9.37585812 4.95034325 -11.75188658 5.90022004 -14.12890625 6.84765625 C-15.99453256 7.59644504 -17.85675326 8.35379595 -19.71484375 9.12109375 C-20.57207031 9.47300781 -21.42929687 9.82492187 -22.3125 10.1875 C-23.48232422 10.67283203 -23.48232422 10.67283203 -24.67578125 11.16796875 C-27.10068304 12.03604284 -29.4660444 12.55599716 -32 13 C-32 12.34 -32 11.68 -32 11 C-5.37818726 -1.85836676 -5.37818726 -1.85836676 0 0 Z " fill="#8371F7" transform="translate(442,276)"/>
<path d="M0 0 C0 7.71076607 -9.17258722 15.78835088 -13.88671875 21.45703125 C-15.28692912 23.14194243 -16.67010476 24.84116797 -18.03515625 26.5546875 C-19.88748858 28.85997585 -21.79486988 31.09417928 -23.75 33.3125 C-24.36359375 34.00988281 -24.9771875 34.70726562 -25.609375 35.42578125 C-26.29773438 36.20501953 -26.29773438 36.20501953 -27 37 C-27.99 36.67 -28.98 36.34 -30 36 C-29.57589844 35.5875 -29.15179687 35.175 -28.71484375 34.75 C-22.07641829 28.21370416 -16.13709602 21.24818345 -10.375 13.9375 C-9.91963867 13.35991943 -9.46427734 12.78233887 -8.99511719 12.18725586 C-5.88002884 8.20303753 -2.91613933 4.13207468 0 0 Z " fill="#0BB9F7" transform="translate(635,557)"/>
<path d="M0 0 C0.33 0 0.66 0 1 0 C1.33 2.31 1.66 4.62 2 7 C2.33 7 2.66 7 3 7 C3.15855469 8.19753906 3.31710937 9.39507812 3.48046875 10.62890625 C4.82979972 20.22063139 6.67903543 29.02503621 10.109375 38.09375 C11 41 11 41 10 44 C6.99451124 37.19310254 4.401812 30.49787192 2.578125 23.27734375 C2.12634797 21.49770854 1.5806207 19.74186209 1 18 C1.4375 15.8125 1.4375 15.8125 2 14 C1.34 14 0.68 14 0 14 C0 9.38 0 4.76 0 0 Z " fill="#6274F9" transform="translate(389,457)"/>
<path d="M0 0 C0.33 0 0.66 0 1 0 C1 6.93 1 13.86 1 21 C0.34 21 -0.32 21 -1 21 C-1 28.92 -1 36.84 -1 45 C-1.33 45 -1.66 45 -2 45 C-2.05008562 40.52003377 -2.08603769 36.04022339 -2.10986328 31.56005859 C-2.11981384 30.04147496 -2.13337916 28.52290993 -2.15087891 27.00439453 C-2.25434493 17.7837455 -1.9458199 9.06879307 0 0 Z " fill="#7063F2" transform="translate(306,427)"/>
<path d="M0 0 C1.32 0 2.64 0 4 0 C3.80664062 0.65742188 3.61328125 1.31484375 3.4140625 1.9921875 C0.8822923 11.24192219 -0.10124404 20.48376041 -1 30 C-1.33 30 -1.66 30 -2 30 C-3.79573289 19.45006928 -2.62039695 10.31633755 0 0 Z " fill="#6B71F8" transform="translate(393,429)"/>
<path d="M0 0 C0.66 0.33 1.32 0.66 2 1 C1.69320312 1.63808594 1.38640625 2.27617187 1.0703125 2.93359375 C-0.33202337 6.95123484 -0.71874616 10.8422052 -1.125 15.0625 C-1.21136719 15.90578857 -1.29773438 16.74907715 -1.38671875 17.61791992 C-1.9345953 23.30376967 -2.06568698 28.88532387 -1.9375 34.59765625 C-2.01717993 37.66035342 -2.75961279 40.20912878 -4 43 C-4.33 43 -4.66 43 -5 43 C-5.108491 35.41304788 -4.82924451 27.93444708 -4.1875 20.375 C-4.08211914 18.91707031 -4.08211914 18.91707031 -3.97460938 17.4296875 C-3.45449165 11.23820606 -2.26727523 5.78844283 0 0 Z " fill="#1ABFF7" transform="translate(679,415)"/>
<path d="M0 0 C-2.3053903 2.63260699 -4.35008104 3.7001878 -7.625 4.875 C-12.08069423 6.56058521 -16.09386182 8.61993236 -20.1875 11.046875 C-22 12 -22 12 -24 12 C-22.99816017 9.09466449 -22.2001568 8.11509016 -19.5 6.5625 C-18.345 6.046875 -17.19 5.53125 -16 5 C-15.2059375 4.57203125 -14.411875 4.1440625 -13.59375 3.703125 C-5.36912393 -0.70646368 -5.36912393 -0.70646368 0 0 Z " fill="#627CF9" transform="translate(463,364)"/>
<path d="M0 0 C0.99 0 1.98 0 3 0 C1.43283614 4.64836739 -1.09034343 8.25571235 -3.9375 12.1875 C-4.38029297 12.81591797 -4.82308594 13.44433594 -5.27929688 14.09179688 C-7.35689579 16.98681176 -9.00723424 19.00482282 -12 21 C-12 18 -12 18 -10 16 C-6.33574346 10.85957154 -3.0540258 5.52073894 0 0 Z " fill="#16B0F9" transform="translate(591,532)"/>
<path d="M0 0 C2.97 0 5.94 0 9 0 C9 11.88 9 23.76 9 36 C8.67 36 8.34 36 8 36 C7.80189924 31.81293153 7.61841484 27.62534345 7.4375 23.4375 C7.38142578 22.25607422 7.32535156 21.07464844 7.26757812 19.85742188 C7.02517365 14.08819538 6.87484316 8.67579117 8 3 C5.36 2.34 2.72 1.68 0 1 C0 0.67 0 0.34 0 0 Z " fill="#4FA8FD" transform="translate(524,355)"/>
<path d="M0 0 C-3.53867432 2.03983733 -7.08198291 2.79624881 -11.0625 3.625 C-12.90521484 4.01558594 -12.90521484 4.01558594 -14.78515625 4.4140625 C-18 5 -18 5 -21 5 C-21.33 5.66 -21.66 6.32 -22 7 C-24.06640625 7.4140625 -24.06640625 7.4140625 -26.5625 7.625 C-27.38878906 7.69976562 -28.21507812 7.77453125 -29.06640625 7.8515625 C-30.02353516 7.92503906 -30.02353516 7.92503906 -31 8 C-29.68 7.34 -28.36 6.68 -27 6 C-27 5.34 -27 4.68 -27 4 C-23.8148163 3.32193683 -20.62654387 2.65964849 -17.4375 2 C-16.54224609 1.80921875 -15.64699219 1.6184375 -14.72460938 1.421875 C-9.70738579 0.39270093 -5.12100455 -0.22479032 0 0 Z " fill="#507DF7" transform="translate(495,356)"/>
<path d="M0 0 C0.33 0 0.66 0 1 0 C1.02701408 2.10409639 1.04640223 4.20829178 1.0625 6.3125 C1.07410156 7.48425781 1.08570313 8.65601563 1.09765625 9.86328125 C1 13 1 13 0 16 C-0.66 16 -1.32 16 -2 16 C-2.04898438 16.61488281 -2.09796875 17.22976563 -2.1484375 17.86328125 C-2.22320313 18.67152344 -2.29796875 19.47976563 -2.375 20.3125 C-2.44460938 21.11300781 -2.51421875 21.91351563 -2.5859375 22.73828125 C-3 25 -3 25 -5 28 C-4.38277416 18.43299944 -2.1798659 9.30752043 0 0 Z " fill="#13C0F7" transform="translate(673,459)"/>
<path d="M0 0 C0.66 0.33 1.32 0.66 2 1 C-1.75 4 -1.75 4 -4 4 C-4.20625 4.61875 -4.4125 5.2375 -4.625 5.875 C-6.57045913 8.88161866 -8.60872838 9.02174857 -12 10 C-13.0725 10.556875 -14.145 11.11375 -15.25 11.6875 C-16.1575 12.120625 -17.065 12.55375 -18 13 C-18.66 12.67 -19.32 12.34 -20 12 C-8.76953125 5.26171875 -8.76953125 5.26171875 -6.81103516 4.09521484 C-5.23434984 3.14172195 -3.68301081 2.14656226 -2.13671875 1.14453125 C-1.43160156 0.76683594 -0.72648438 0.38914062 0 0 Z " fill="#10B3F8" transform="translate(564,624)"/>
<path d="M0 0 C2.125 0.9375 2.125 0.9375 4 2 C4 2.33 4 2.66 4 3 C-8.87 3.99 -8.87 3.99 -22 5 C-18.24284998 2.49523332 -14.81218639 2.35500119 -10.4375 1.9375 C-5.05514957 1.60111864 -5.05514957 1.60111864 0 0 Z " fill="#617AF4" transform="translate(489,264)"/>
<path d="M0 0 C0 0.99 0 1.98 0 3 C-0.79664063 3.38091797 -0.79664063 3.38091797 -1.609375 3.76953125 C-5.36117635 5.59750746 -8.68323605 7.44864311 -12 10 C-12.66 10 -13.32 10 -14 10 C-14 9.34 -14 8.68 -14 8 C-11.8828125 6.30859375 -11.8828125 6.30859375 -9.125 4.4375 C-8.22007812 3.81746094 -7.31515625 3.19742188 -6.3828125 2.55859375 C-2.47117794 0 -2.47117794 0 0 0 Z " fill="#12B2F8" transform="translate(544,637)"/>
<path d="M0 0 C0.66 0.33 1.32 0.66 2 1 C0.71937515 2.7074998 -0.61767557 4.37373596 -2 6 C-2.66 6 -3.32 6 -4 6 C-4 6.66 -4 7.32 -4 8 C-5.65365406 9.02137457 -7.32376502 10.01612294 -9 11 C-11.05629871 12.60843974 -13.02012519 14.29638679 -15 16 C-13.69113024 13.07299167 -12.33773912 11.12815685 -9.9609375 8.984375 C-9.38085938 8.45585937 -8.80078125 7.92734375 -8.203125 7.3828125 C-7.59984375 6.84398437 -6.9965625 6.30515625 -6.375 5.75 C-5.76398438 5.19570313 -5.15296875 4.64140625 -4.5234375 4.0703125 C-3.02043435 2.7082159 -1.5108532 1.35338399 0 0 Z " fill="#8C67F4" transform="translate(370,314)"/>
<path d="M0 0 C2.55698285 3.78667689 2.03499684 7.4122334 1.625 11.75 C1.56828125 12.44738281 1.5115625 13.14476562 1.453125 13.86328125 C1.31232128 15.57639312 1.15754028 17.28834611 1 19 C0.67 19 0.34 19 0 19 C-1.06808374 12.72500803 -2.04367839 6.13103517 0 0 Z " fill="#7478FB" transform="translate(391,440)"/>
<path d="M0 0 C0.33 0 0.66 0 1 0 C0.03644647 11.52164009 0.03644647 11.52164009 -1 17 C-1.33 17 -1.66 17 -2 17 C-3.38476436 6.02840542 -3.38476436 6.02840542 -2 2 C-1.34 1.34 -0.68 0.68 0 0 Z " fill="#8C73F9" transform="translate(309,417)"/>
<path d="M0 0 C0.99 0.33 1.98 0.66 3 1 C4.1328125 3.36328125 4.1328125 3.36328125 5.125 6.3125 C5.45757812 7.27800781 5.79015625 8.24351562 6.1328125 9.23828125 C6.83782127 11.4835119 7.46674703 13.70918878 8 16 C5.34154327 13.62999752 3.88838209 11.18015846 2.3125 8 C1.87550781 7.13375 1.43851562 6.2675 0.98828125 5.375 C0 3 0 3 0 0 Z " fill="#5C72F3" transform="translate(320,535)"/>
<path d="M0 0 C0.66 0.33 1.32 0.66 2 1 C1.21625 1.886875 0.4325 2.77375 -0.375 3.6875 C-2.13324245 5.77079568 -3.06240677 7.16152341 -4.0625 9.75 C-5 12 -5 12 -7.125 13.3125 C-8.053125 13.6528125 -8.053125 13.6528125 -9 14 C-7.65070536 10.16336928 -5.92248975 7.34827431 -3.375 4.1875 C-2.42753906 3.00220703 -2.42753906 3.00220703 -1.4609375 1.79296875 C-0.97882813 1.20128906 -0.49671875 0.60960937 0 0 Z " fill="#8665F3" transform="translate(342,344)"/>
<path d="M0 0 C1.31625194 2.63250388 0.74813658 3.80179056 0.0625 6.625 C-0.13214844 7.44226563 -0.32679688 8.25953125 -0.52734375 9.1015625 C-0.76130859 10.04128906 -0.76130859 10.04128906 -1 11 C-1.66 11 -2.32 11 -3 11 C-3.33 11.99 -3.66 12.98 -4 14 C-4.33 13.34 -4.66 12.68 -5 12 C-4.26821134 9.92803369 -3.44100997 7.8891448 -2.5625 5.875 C-2.08941406 4.77929688 -1.61632812 3.68359375 -1.12890625 2.5546875 C-0.75636719 1.71164062 -0.38382813 0.86859375 0 0 Z " fill="#3096F8" transform="translate(529,464)"/>
<path d="M0 0 C1.485 0.99 1.485 0.99 3 2 C2.67 2.99 2.34 3.98 2 5 C1.34 5 0.68 5 0 5 C0 6.65 0 8.3 0 10 C-0.33 10 -0.66 10 -1 10 C-0.67 6.7 -0.34 3.4 0 0 Z M-2 10 C-1.67 11.32 -1.34 12.64 -1 14 C-1.99 14 -2.98 14 -4 14 C-3 11 -3 11 -2 10 Z " fill="#3BA5FE" transform="translate(533,450)"/>
<path d="M0 0 C-2.31 0.66 -4.62 1.32 -7 2 C-7 2.66 -7 3.32 -7 4 C-8.98 4 -10.96 4 -13 4 C-11.72807637 1.45615274 -10.80051531 1.30631844 -8.1875 0.3125 C-7.50042969 0.04050781 -6.81335938 -0.23148437 -6.10546875 -0.51171875 C-3.70623504 -1.06812731 -2.3105636 -0.77364938 0 0 Z " fill="#7770F3" transform="translate(442,276)"/>
<path d="M0 0 C0.33 0 0.66 0 1 0 C1.39111271 1.91344374 1.76231167 3.83096553 2.125 5.75 C2.33382813 6.81734375 2.54265625 7.8846875 2.7578125 8.984375 C3.01099324 12.13688351 2.70415175 13.39959066 1 16 C-0.12862175 10.63904667 -0.09688221 5.44693314 0 0 Z " fill="#827BFE" transform="translate(307,480)"/>
<path d="M0 0 C0.66 0.66 1.32 1.32 2 2 C-0.64 4.97 -3.28 7.94 -6 11 C-6 7.39426104 -5.18292538 6.58663434 -3 3.8125 C-2.443125 3.09707031 -1.88625 2.38164062 -1.3125 1.64453125 C-0.879375 1.10183594 -0.44625 0.55914062 0 0 Z " fill="#9D6EFF" transform="translate(345,342)"/>
<path d="M0 0 C0.99 0 1.98 0 3 0 C1.63055898 2.94956528 0.12169591 5.52468811 -2 8 C-2.66 8 -3.32 8 -4 8 C-3.40353695 4.65980694 -2.31705841 2.49529367 0 0 Z " fill="#17AFF8" transform="translate(576,553)"/>
<path d="M0 0 C1.46067199 0.45082469 2.91848032 0.91093537 4.375 1.375 C5.18710937 1.63023437 5.99921875 1.88546875 6.8359375 2.1484375 C9 3 9 3 11 5 C9.54052295 4.93993922 8.08220728 4.8511311 6.625 4.75 C5.81289063 4.70359375 5.00078125 4.6571875 4.1640625 4.609375 C2 4 2 4 0.7109375 1.953125 C0.47632813 1.30859375 0.24171875 0.6640625 0 0 Z " fill="#3D87F6" transform="translate(441,547)"/>
<path d="M0 0 C1.93607846 2.8471742 1.98954766 4.15417196 1.75 7.6875 C1.5025 8.780625 1.255 9.87375 1 11 C0.01 11.495 0.01 11.495 -1 12 C-1.14285714 3.42857143 -1.14285714 3.42857143 0 0 Z " fill="#1DD3FE" transform="translate(679,417)"/>
<path d="M0 0 C0.66 0.33 1.32 0.66 2 1 C0.35 2.98 -1.3 4.96 -3 7 C-3.66 6.34 -4.32 5.68 -5 5 C-3.35 3.35 -1.7 1.7 0 0 Z M-7 7 C-7 10 -7 10 -7 10 Z " fill="#9F72FE" transform="translate(363,322)"/>
<path d="M0 0 C0.99 0.33 1.98 0.66 3 1 C3 1.66 3 2.32 3 3 C-1.43076923 5.09230769 -1.43076923 5.09230769 -4.3125 4.625 C-4.869375 4.41875 -5.42625 4.2125 -6 4 C-4.02 3.01 -2.04 2.02 0 1 C0 0.67 0 0.34 0 0 Z " fill="#867CFE" transform="translate(441,274)"/>
<path d="M0 0 C0.99 0 1.98 0 3 0 C2.25 1.9375 2.25 1.9375 1 4 C-1.125 4.75 -1.125 4.75 -3 5 C-1.125 1.125 -1.125 1.125 0 0 Z " fill="#1BB2F9" transform="translate(569,561)"/>
<path d="M0 0 C0.33 1.32 0.66 2.64 1 4 C0.34 3.67 -0.32 3.34 -1 3 C-0.67 2.01 -0.34 1.02 0 0 Z " fill="#8183F4" transform="translate(306,498)"/>
<path d="" fill="#51A5FF" transform="translate(0,0)"/>
<path d="M0 0 C3 1 3 1 3 1 Z " fill="#7A94F7" transform="translate(481,264)"/>
<path d="M0 0 C2 1 2 1 2 1 Z " fill="#1BD2F3" transform="translate(640,655)"/>
<path d="" fill="#34D6FA" transform="translate(0,0)"/>
<path d="M0 0 C2 1 2 1 2 1 Z " fill="#6994FE" transform="translate(469,364)"/>
<path d="" fill="#9D79EF" transform="translate(0,0)"/>
<path d="M0 0 C2 1 2 1 2 1 Z " fill="#8F88F8" transform="translate(441,272)"/>
<path d="" fill="#515152" transform="translate(0,0)"/>
<path d="" fill="#525252" transform="translate(0,0)"/>
<path d="" fill="#4F5250" transform="translate(0,0)"/>
<path d="" fill="#525252" transform="translate(0,0)"/>
<path d="" fill="#505252" transform="translate(0,0)"/>
<path d="" fill="#545454" transform="translate(0,0)"/>
<path d="" fill="#505352" transform="translate(0,0)"/>
<path d="" fill="#515554" transform="translate(0,0)"/>
<path d="" fill="#525252" transform="translate(0,0)"/>
<path d="" fill="#535255" transform="translate(0,0)"/>
<path d="" fill="#515456" transform="translate(0,0)"/>
<path d="" fill="#525655" transform="translate(0,0)"/>
<path d="" fill="#4D8F98" transform="translate(0,0)"/>
<path d="" fill="#20C7F6" transform="translate(0,0)"/>
<path d="" fill="#2BBFF5" transform="translate(0,0)"/>
<path d="" fill="#1DCFF6" transform="translate(0,0)"/>
<path d="" fill="#586766" transform="translate(0,0)"/>
<path d="" fill="#18CBF5" transform="translate(0,0)"/>
<path d="" fill="#18CFF1" transform="translate(0,0)"/>
<path d="" fill="#25C4F7" transform="translate(0,0)"/>
<path d="" fill="#26C4F6" transform="translate(0,0)"/>
<path d="" fill="#65676E" transform="translate(0,0)"/>
<path d="" fill="#1CD4F8" transform="translate(0,0)"/>
<path d="" fill="#3AAFFA" transform="translate(0,0)"/>
<path d="" fill="#3DAFF8" transform="translate(0,0)"/>
<path d="" fill="#29C1FF" transform="translate(0,0)"/>
<path d="" fill="#47A7F6" transform="translate(0,0)"/>
<path d="" fill="#22C6FC" transform="translate(0,0)"/>
<path d="" fill="#5598F3" transform="translate(0,0)"/>
<path d="" fill="#4D97F3" transform="translate(0,0)"/>
<path d="" fill="#5297F6" transform="translate(0,0)"/>
<path d="" fill="#32BCFF" transform="translate(0,0)"/>
<path d="" fill="#5A95F4" transform="translate(0,0)"/>
<path d="" fill="#5993F6" transform="translate(0,0)"/>
<path d="" fill="#5E92F4" transform="translate(0,0)"/>
<path d="" fill="#1ECCFE" transform="translate(0,0)"/>
<path d="" fill="#21C8FE" transform="translate(0,0)"/>
<path d="" fill="#5A95F5" transform="translate(0,0)"/>
<path d="" fill="#5D96F4" transform="translate(0,0)"/>
<path d="" fill="#6090F8" transform="translate(0,0)"/>
<path d="" fill="#29BBF8" transform="translate(0,0)"/>
<path d="" fill="#508F8E" transform="translate(0,0)"/>
<path d="" fill="#618AF1" transform="translate(0,0)"/>
<path d="" fill="#658DF5" transform="translate(0,0)"/>
<path d="" fill="#6488F5" transform="translate(0,0)"/>
<path d="" fill="#648CF7" transform="translate(0,0)"/>
<path d="" fill="#1BCDFB" transform="translate(0,0)"/>
<path d="" fill="#6A8BF4" transform="translate(0,0)"/>
<path d="" fill="#6D8AF6" transform="translate(0,0)"/>
<path d="" fill="#6F89EF" transform="translate(0,0)"/>
<path d="" fill="#1BD0FC" transform="translate(0,0)"/>
<path d="" fill="#7686F6" transform="translate(0,0)"/>
<path d="" fill="#6D6A72" transform="translate(0,0)"/>
<path d="" fill="#5897F7" transform="translate(0,0)"/>
<path d="" fill="#1AD8FB" transform="translate(0,0)"/>
<path d="" fill="#4DA6FA" transform="translate(0,0)"/>
<path d="" fill="#29C5FE" transform="translate(0,0)"/>
<path d="" fill="#7888F0" transform="translate(0,0)"/>
<path d="" fill="#4DA6FE" transform="translate(0,0)"/>
<path d="" fill="#7D89F7" transform="translate(0,0)"/>
<path d="" fill="#4BA8FD" transform="translate(0,0)"/>
<path d="" fill="#7A87F5" transform="translate(0,0)"/>
<path d="" fill="#4AA6FB" transform="translate(0,0)"/>
<path d="" fill="#4AACFF" transform="translate(0,0)"/>
<path d="" fill="#4AAAFC" transform="translate(0,0)"/>
<path d="" fill="#4BABFC" transform="translate(0,0)"/>
<path d="" fill="#6692FE" transform="translate(0,0)"/>
<path d="" fill="#1CDBF5" transform="translate(0,0)"/>
<path d="" fill="#2AC4FF" transform="translate(0,0)"/>
<path d="" fill="#8087EF" transform="translate(0,0)"/>
<path d="" fill="#688AFB" transform="translate(0,0)"/>
<path d="" fill="#6889FE" transform="translate(0,0)"/>
<path d="" fill="#7F84F2" transform="translate(0,0)"/>
<path d="" fill="#6A89FE" transform="translate(0,0)"/>
<path d="" fill="#708AFC" transform="translate(0,0)"/>
<path d="" fill="#2BC0FD" transform="translate(0,0)"/>
<path d="" fill="#8085F3" transform="translate(0,0)"/>
<path d="" fill="#25C6FD" transform="translate(0,0)"/>
<path d="" fill="#27C4FF" transform="translate(0,0)"/>
<path d="" fill="#42B1FD" transform="translate(0,0)"/>
<path d="" fill="#6F87FC" transform="translate(0,0)"/>
<path d="" fill="#21D2FB" transform="translate(0,0)"/>
<path d="" fill="#2BC2FC" transform="translate(0,0)"/>
<path d="" fill="#8082F3" transform="translate(0,0)"/>
<path d="" fill="#42ADFD" transform="translate(0,0)"/>
<path d="" fill="#7589FF" transform="translate(0,0)"/>
<path d="" fill="#30C4FE" transform="translate(0,0)"/>
<path d="" fill="#24D7FD" transform="translate(0,0)"/>
<path d="" fill="#48ABFF" transform="translate(0,0)"/>
<path d="" fill="#2BD5FD" transform="translate(0,0)"/>
<path d="" fill="#2EC4FF" transform="translate(0,0)"/>
<path d="" fill="#48A9FD" transform="translate(0,0)"/>
<path d="" fill="#927DF1" transform="translate(0,0)"/>
<path d="" fill="#927DF0" transform="translate(0,0)"/>
<path d="" fill="#47A8FF" transform="translate(0,0)"/>
<path d="" fill="#4AAAFD" transform="translate(0,0)"/>
<path d="" fill="#36D9F1" transform="translate(0,0)"/>
<path d="" fill="#947DF1" transform="translate(0,0)"/>
<path d="" fill="#7E81FB" transform="translate(0,0)"/>
<path d="" fill="#36D2FA" transform="translate(0,0)"/>
<path d="" fill="#36D5F6" transform="translate(0,0)"/>
<path d="" fill="#35D5F6" transform="translate(0,0)"/>
<path d="" fill="#32D4F5" transform="translate(0,0)"/>
<path d="" fill="#7D85FD" transform="translate(0,0)"/>
<path d="" fill="#7E83F9" transform="translate(0,0)"/>
<path d="" fill="#967BF2" transform="translate(0,0)"/>
<path d="" fill="#957CF4" transform="translate(0,0)"/>
<path d="" fill="#7B8AFC" transform="translate(0,0)"/>
<path d="" fill="#997BEF" transform="translate(0,0)"/>
<path d="" fill="#718DFB" transform="translate(0,0)"/>
<path d="" fill="#6795FF" transform="translate(0,0)"/>
<path d="" fill="#51AAFF" transform="translate(0,0)"/>
<path d="" fill="#6199FE" transform="translate(0,0)"/>
<path d="" fill="#5F9AFF" transform="translate(0,0)"/>
<path d="" fill="#5D96FE" transform="translate(0,0)"/>
<path d="" fill="#54A2FF" transform="translate(0,0)"/>
<path d="" fill="#55A0FF" transform="translate(0,0)"/>
<path d="" fill="#9D79ED" transform="translate(0,0)"/>
<path d="" fill="#9C77F2" transform="translate(0,0)"/>
<path d="" fill="#A07DF5" transform="translate(0,0)"/>
<path d="" fill="#9C7EF3" transform="translate(0,0)"/>
<path d="" fill="#9A7CF7" transform="translate(0,0)"/>
<path d="" fill="#4DB8F7" transform="translate(0,0)"/>
<path d="" fill="#4FB8F6" transform="translate(0,0)"/>
<path d="" fill="#957CF5" transform="translate(0,0)"/>
<path d="" fill="#51B6F3" transform="translate(0,0)"/>
<path d="" fill="#9681F4" transform="translate(0,0)"/>
<path d="" fill="#9185F4" transform="translate(0,0)"/>
<path d="" fill="#5B6969" transform="translate(0,0)"/>
<path d="" fill="#56BBF3" transform="translate(0,0)"/>
<path d="" fill="#51B3F2" transform="translate(0,0)"/>
<path d="" fill="#888DF7" transform="translate(0,0)"/>
<path d="" fill="#57B7F3" transform="translate(0,0)"/>
<path d="" fill="#56B4F2" transform="translate(0,0)"/>
<path d="" fill="#8092F9" transform="translate(0,0)"/>
<path d="" fill="#7D8EF6" transform="translate(0,0)"/>
<path d="" fill="#7C91F9" transform="translate(0,0)"/>
<path d="" fill="#5C6E6E" transform="translate(0,0)"/>
<path d="" fill="#5A6161" transform="translate(0,0)"/>
<path d="" fill="#5B5B5D" transform="translate(0,0)"/>
</svg>
